<svg width="128" height="128" viewBox="0 0 128 128" fill="none" xmlns="http://www.w3.org/2000/svg">
  <!-- 背景圆形 -->
  <circle cx="64" cy="64" r="64" fill="#35495E"/>
  
  <!-- Vue Logo部分 -->
  <path d="M78.8,32L64,56.3L49.2,32H27.2L64,96l36.8-64H78.8z" fill="#41B883"/>
  <path d="M78.8,32L64,56.3L49.2,32H38.4L64,74.7L89.6,32H78.8z" fill="#34495E"/>
  
  <!-- GSAP文字 -->
  <path d="M29,84h8.5c3.5,0,6,0.7,7.7,2.2c1.7,1.5,2.5,3.5,2.5,6.1c0,2.7-0.8,4.8-2.5,6.3c-1.7,1.5-4.2,2.3-7.7,2.3H29V84z M37.4,96.8c2,0,3.5-0.4,4.4-1.2c0.9-0.8,1.4-2,1.4-3.5c0-1.5-0.5-2.6-1.4-3.4c-0.9-0.8-2.4-1.2-4.4-1.2h-3.2v9.2H37.4z" fill="#42B883"/>
  <path d="M51.9,84H62c3,0,5.3,0.6,6.8,1.7c1.5,1.1,2.3,2.8,2.3,5c0,1.5-0.4,2.8-1.1,3.7c-0.7,1-1.8,1.6-3.1,2l5,4.5h-6.3l-4.2-4.1h-3.4v4.1h-5.9V84z M61.7,93c1.2,0,2.1-0.2,2.7-0.7c0.6-0.5,0.9-1.1,0.9-2c0-0.9-0.3-1.5-0.9-1.9c-0.6-0.4-1.5-0.6-2.7-0.6h-4.2V93H61.7z" fill="#42B883"/>
  <path d="M74.7,84h5.9v8.3c0,1.4,0.3,2.4,0.8,3c0.5,0.6,1.3,0.9,2.4,0.9c1.1,0,1.9-0.3,2.4-0.9c0.5-0.6,0.8-1.6,0.8-3V84h5.9v8.2c0,2.9-0.8,5.1-2.5,6.5c-1.7,1.4-4,2.1-7,2.1c-3,0-5.3-0.7-7-2.1c-1.7-1.4-2.5-3.6-2.5-6.5V84z" fill="#42B883"/>
  <path d="M104.8,84h5.9v17h-5.9V84z" fill="#42B883"/>
  
  <!-- GSAP动画元素 -->
  <rect x="28" y="65" width="12" height="12" fill="#42B883" rx="2">
    <animateTransform 
      attributeName="transform"
      attributeType="XML"
      type="translate"
      from="0 0"
      to="60 0"
      dur="2s"
      repeatCount="indefinite"
    />
  </rect>
</svg> 