<svg xmlns="http://www.w3.org/2000/svg" viewBox="0 0 24 24" width="24" height="24" fill="none" stroke="currentColor" stroke-width="2" stroke-linecap="round" stroke-linejoin="round">
  <circle cx="13.5" cy="6.5" r="1.5"></circle>
  <circle cx="17.5" cy="10.5" r="1.5"></circle>
  <circle cx="8.5" cy="7.5" r="1.5"></circle>
  <circle cx="6.5" cy="12.5" r="1.5"></circle>
  <path d="M12 2C6.5 2 2 6.5 2 12s4.5 10 10 10c.9 0 1.7-.8 1.7-1.7 0-.4-.2-.8-.4-1.1-.2-.3-.4-.6-.4-1 0-.9.8-1.7 1.7-1.7h3.4c3.1 0 5.7-2.5 5.7-5.7C22 6.5 17.5 2 12 2z"></path>
</svg> 